<?xml version="1.0" encoding="UTF-8"?><svg id="Layer_2" xmlns="http://www.w3.org/2000/svg" viewBox="0 0 99.56 71.58"><g id="Layer_1-2"><g id="oA3BBK"><path d="m1.04,6.85c.13.03.17.12.23.2,1.85,2.56,3.86,5,5.97,7.36,2.54,2.85,5.2,5.58,8.02,8.16,2.59,2.38,5.28,4.64,8.09,6.75,3.91,2.93,8.01,5.54,12.37,7.73,5.09,2.57,10.41,4.52,16.01,5.64,1.1.22,2.2.42,3.32.55.46.06.48.11.21.48-2.83,3.98-5.82,7.84-9.02,11.53-4.56,5.24-9.44,10.15-14.99,14.36-.84.64-1.7,1.24-2.58,1.82-.31.2-.53.2-.85,0-2.91-1.89-5.67-3.97-8.24-6.29-3.57-3.21-6.69-6.81-9.34-10.8-4.38-6.6-7.24-13.83-8.81-21.59-.63-3.08-1.03-6.2-1.25-9.34C-.02,20.74-.03,18.06.05,15.39c.08-2.68.35-5.34.81-7.99.03-.19,0-.41.18-.54Z" style="fill:#ee2a7b;"/><path d="m99.52,25.46c.04.87.07,1.63-.02,2.38-.79,6.91-3.64,12.92-8.12,18.18-3.2,3.75-7.05,6.69-11.37,9.03-1,.54-1.01.54-1.82-.27-1.99-1.98-3.6-4.26-5.13-6.59-1.77-2.69-3.35-5.49-4.79-8.36-.26-.51-.25-.52.32-.56,5.64-.38,11.02-1.82,16.19-4.07,4.09-1.78,7.96-3.95,11.52-6.66.86-.65,1.69-1.35,2.44-2.13.26-.27.48-.58.79-.97Z" style="fill:#ef4136;"/><path d="m67.32,68.44c-5.27-.05-10.11-.9-14.86-2.31-1.89-.56-3.75-1.2-5.57-1.96-.43-.18-.44-.22-.06-.51,2.98-2.31,5.66-4.94,8.21-7.72,3.26-3.55,6.22-7.34,9-11.28.22-.32.27-.31.47.1,1.58,3.23,3.3,6.39,5.19,9.45,2.08,3.38,4.28,6.67,6.86,9.7.62.73,1.25,1.45,2.01,2.04.24.19.26.3-.05.43-2.17.87-4.42,1.42-6.73,1.73-1.57.22-3.16.27-4.44.31Z" style="fill:#056333;"/><path d="m70.43,33.01c-3.07,0-6.03-.54-8.82-1.88-.67-.32-1.3-.69-1.93-1.09-.3-.19-.25-.31-.01-.51,2.41-1.98,4.8-3.97,7.21-5.95.85-.71,1.72-1.4,2.56-2.12.26-.22.4-.23.61.06,2.49,3.39,4.99,6.78,7.5,10.16.18.25.17.35-.14.44-1.51.41-3.04.65-4.6.8-.79.08-1.58.1-2.38.09Z" style="fill:#9e1f63;"/><path d="m80.41,4.92c0,2.72-2.18,4.93-4.88,4.93-2.73,0-4.93-2.18-4.93-4.92C70.58,2.24,72.79.02,75.49,0c2.67-.02,4.91,2.23,4.91,4.92Z" style="fill:#f7941d;"/></g></g></svg>