<?xml version="1.0" encoding="UTF-8"?><svg id="Layer_2" xmlns="http://www.w3.org/2000/svg" xmlns:xlink="http://www.w3.org/1999/xlink" viewBox="0 0 128 128"><defs><clipPath id="clippath"><rect x="0" y="0" width="128" height="128" rx="20" ry="20" style="fill:none;"/></clipPath><clipPath id="clippath-1"><rect x="0" y="0" width="128" height="128" rx="20" ry="20" style="fill:none;"/></clipPath><clipPath id="clippath-2"><rect x="0" y="0" width="128" height="128" rx="20" ry="20" style="fill:none;"/></clipPath><clipPath id="clippath-3"><rect x="0" y="0" width="128" height="128" rx="20" ry="20" style="fill:none;"/></clipPath></defs><g id="Layer_1-2"><rect x="0" y="0" width="128" height="128" rx="20" ry="20" style="fill:#f7941d;"/><g style="clip-path:url(#clippath); fill:none;"><polygon points="43.54 -18.73 112.12 152.71 -35.75 142.71 -31.76 -25.16 43.54 -18.73" style="fill:#ef4136;"/></g><g style="clip-path:url(#clippath-1); fill:none;"><polygon points="-38.61 24.13 -38.61 172 150.69 124.85 -26.46 5.56 -38.61 24.13" style="fill:#056333;"/></g><g style="clip-path:url(#clippath-2); fill:none;"><polygon points="-17.18 108.42 140.69 34.84 157.12 147.71 -12.92 147.71 -17.18 108.42" style="fill:#9e1f63;"/></g><g style="clip-path:url(#clippath-3); fill:none;"><polygon points="-37.2 54.47 -31.76 140.7 115.24 140.7 -31.76 22.2 -37.2 54.47" style="fill:#ee2a7b;"/></g></g></svg>