<?xml version="1.0" standalone="no"?>
<!DOCTYPE svg PUBLIC "-//W3C//DTD SVG 20010904//EN"
 "http://www.w3.org/TR/2001/REC-SVG-20010904/DTD/svg10.dtd">
<svg version="1.0" xmlns="http://www.w3.org/2000/svg"
 width="700.000000pt" height="700.000000pt" viewBox="0 0 700.000000 700.000000"
 preserveAspectRatio="xMidYMid meet">
<metadata>
Created by potrace 1.14, written by Peter Selinger 2001-2017
</metadata>
<g transform="translate(0.000000,700.000000) scale(0.100000,-0.100000)"
fill="#000000" stroke="none">
<path d="M4838 5446 c-49 -13 -63 -21 -116 -70 -107 -98 -108 -271 -2 -376
169 -170 449 -51 450 191 0 175 -165 302 -332 255z"/>
<path d="M825 5068 c-2 -7 -12 -71 -22 -143 -23 -163 -26 -737 -5 -905 87
-708 313 -1270 711 -1770 100 -127 340 -365 476 -473 107 -86 298 -221 329
-233 17 -7 104 50 236 154 355 281 761 710 1096 1157 141 188 167 226 161 231
-3 3 -56 15 -119 25 -685 117 -1395 494 -2043 1086 -259 237 -606 613 -755
820 -46 64 -57 73 -65 51z"/>
<path d="M4305 4064 c-148 -123 -271 -228 -273 -234 -5 -13 70 -58 158 -95
152 -65 311 -90 505 -82 135 6 293 31 319 50 13 10 -17 56 -195 297 -116 157
-218 286 -227 287 -10 1 -138 -99 -287 -223z"/>
<path d="M6152 3992 c-35 -34 -109 -95 -164 -134 -411 -294 -910 -489 -1373
-538 -60 -7 -112 -14 -114 -16 -6 -5 123 -244 196 -363 114 -186 233 -349 318
-438 l82 -85 53 27 c361 183 687 505 879 867 113 213 198 521 189 683 l-3 60
-63 -63z"/>
<path d="M4162 2858 c-270 -360 -518 -629 -772 -837 -36 -30 -66 -57 -68 -61
-2 -4 55 -29 125 -55 493 -181 996 -235 1398 -149 90 19 223 63 231 76 4 5
-21 38 -54 72 -179 182 -473 629 -658 997 -35 71 -66 129 -69 129 -2 0 -62
-78 -133 -172z"/>
</g>
</svg>
