<?xml version="1.0" encoding="UTF-8"?><svg id="b" xmlns="http://www.w3.org/2000/svg" viewBox="0 0 180.32 117.85"><g id="c"><path id="d" d="m180.32,60.97c-19.16.02-37.45,8.01-50.5,22.04l-1.35,1.48c-19.61,21.16-52.65,22.41-73.81,2.81-.97-.9-1.91-1.84-2.81-2.81l-1.35-1.48C37.46,68.98,19.17,61,0,60.97v16.65c14.54-.06,28.43,6,38.28,16.71l1.35,1.48c25.85,27.89,69.41,29.55,97.3,3.7,1.28-1.19,2.51-2.42,3.7-3.7l1.36-1.48c9.84-10.72,23.75-16.79,38.3-16.72l.03-16.63Z"/><path id="e" d="m45.48,48.2c7.64-.03,13.82-6.24,13.79-13.89-.03-7.64-6.24-13.82-13.89-13.79-7.64.03-13.82,6.24-13.79,13.89.01,3.47,1.33,6.81,3.69,9.35,2.64,2.83,6.33,4.44,10.2,4.44"/><path id="f" d="m90.72,67.94h.11c7.65-.06,13.81-6.32,13.75-13.97-.06-7.65-6.32-13.81-13.97-13.75h0c-7.65.03-13.84,6.26-13.8,13.92s6.26,13.84,13.92,13.8h0"/><path id="g" d="m135.57,47.43c7.64.03,13.85-6.14,13.88-13.78.02-3.88-1.6-7.59-4.46-10.23-5.61-5.2-14.37-4.86-19.57.75-5.2,5.61-4.86,14.37.75,19.57,2.56,2.37,5.91,3.68,9.39,3.69"/><path id="h" d="m166.91,13.72c-.05,7.5,5.88,13.67,13.37,13.93V0c-7.42.25-13.32,6.3-13.37,13.72"/><path id="i" d="m9.82,23.66c2.57-2.62,4.02-6.14,4.04-9.82-.01-.91-.1-1.82-.27-2.72-.17-.87-.43-1.73-.78-2.55-.36-.84-.78-1.66-1.27-2.43-.52-.74-1.1-1.45-1.72-2.11-.66-.62-1.36-1.2-2.11-1.72-.78-.49-1.59-.91-2.44-1.27-.82-.34-1.68-.61-2.55-.78C1.83.09.92,0,0,0v27.69h0c3.67-.03,7.19-1.47,9.82-4.04"/></g></svg>