<?xml version="1.0" encoding="UTF-8"?><svg id="b" xmlns="http://www.w3.org/2000/svg" viewBox="0 0 81.49 1032.54"><defs><style>.by,.bz{fill:none;stroke:#000;stroke-dasharray:0 0 0 5.5;stroke-linecap:round;stroke-width:1.5px;}.bz{stroke-miterlimit:10;}.ca{fill-rule:evenodd;}</style></defs><g id="c"><line id="d" class="bz" x1="40.75" y1="102.15" x2="40.75" y2="742.96"/><path id="e" class="ca" d="m48.87,89.72h-16.24l8.28,7.28,7.97-7.28Z"/><path id="f" class="ca" d="m45.08,109.62h-8.66l4.42,3.89,4.25-3.89Z"/><path id="g" class="ca" d="m45.08,145.51h-8.66l4.42,3.89,4.25-3.89Z"/><path id="h" class="ca" d="m45.08,181.4h-8.66l4.42,3.89,4.25-3.89Z"/><path id="i" class="ca" d="m48.87,125.6h-16.24l8.28,7.28,7.97-7.28Z"/><path id="j" class="ca" d="m48.87,161.49h-16.24l8.28,7.28,7.97-7.28Z"/><path id="k" class="ca" d="m48.87,197.38h-16.24l8.28,7.28,7.97-7.28Z"/><path id="l" class="ca" d="m48.87,358.86h-16.24l8.28,7.28,7.97-7.28Z"/><path id="m" class="ca" d="m45.08,378.77h-8.66l4.42,3.89,4.25-3.89Z"/><path id="n" class="ca" d="m45.08,414.66h-8.66l4.42,3.89,4.25-3.89Z"/><path id="o" class="ca" d="m45.08,450.54h-8.66l4.42,3.89,4.25-3.89Z"/><path id="p" class="ca" d="m48.87,394.75h-16.24l8.28,7.28,7.97-7.28Z"/><path id="q" class="ca" d="m48.87,430.64h-16.24l8.28,7.28,7.97-7.28Z"/><path id="r" class="ca" d="m48.87,466.52h-16.24l8.28,7.28,7.97-7.28Z"/><path id="s" class="ca" d="m48.87,628.01h-16.24l8.28,7.28,7.97-7.28Z"/><path id="t" class="ca" d="m45.08,647.92h-8.66l4.42,3.89,4.25-3.89Z"/><path id="u" class="ca" d="m45.08,683.81h-8.66l4.42,3.89,4.25-3.89Z"/><path id="v" class="ca" d="m45.08,719.69h-8.66l4.42,3.89,4.25-3.89Z"/><path id="w" class="ca" d="m48.87,663.9h-16.24l8.28,7.28,7.97-7.28Z"/><path id="x" class="ca" d="m48.87,699.78h-16.24l8.28,7.28,7.97-7.28Z"/><path id="y" class="ca" d="m48.87,735.67h-16.24l8.28,7.28,7.97-7.28Z"/><path id="z" d="m0,0l8.28,7.28L16.24,0H0Z"/><path id="aa" class="ca" d="m12.45,19.91H3.79l4.42,3.89,4.25-3.89Z"/><path id="ab" class="ca" d="m12.45,55.79H3.79l4.42,3.89,4.25-3.89Z"/><path id="ac" class="ca" d="m12.45,91.68H3.79l4.42,3.89,4.25-3.89Z"/><path id="ad" d="m0,35.89l8.28,7.29,7.97-7.28H0Z"/><path id="ae" d="m0,71.77l8.28,7.29,7.97-7.28H0Z"/><path id="af" d="m0,107.66l8.28,7.29,7.97-7.28H0Z"/><path id="ag" d="m0,269.15l8.28,7.29,7.97-7.28H0Z"/><path id="ah" class="ca" d="m12.45,289.06H3.79l4.42,3.89,4.25-3.89Z"/><path id="ai" class="ca" d="m12.45,324.94H3.79l4.42,3.89,4.25-3.89Z"/><path id="aj" class="ca" d="m12.45,360.83H3.79l4.42,3.89,4.25-3.89Z"/><path id="ak" d="m0,305.03l8.28,7.29,7.97-7.28H0Z"/><path id="al" d="m0,340.92l8.28,7.28,7.97-7.28H0Z"/><path id="am" d="m0,376.81l8.28,7.29,7.97-7.28H0Z"/><path id="an" d="m0,538.25l8.28,7.28,7.97-7.28H0Z"/><path id="ao" class="ca" d="m12.45,558.15H3.79l4.42,3.89,4.25-3.89Z"/><path id="ap" class="ca" d="m12.45,594.04H3.79l4.42,3.89,4.25-3.89Z"/><path id="aq" class="ca" d="m12.45,629.92H3.79l4.42,3.89,4.25-3.89Z"/><path id="ar" d="m0,574.13l8.28,7.28,7.97-7.28H0Z"/><path id="as" d="m0,610.02l8.28,7.28,7.97-7.28H0Z"/><path id="at" d="m0,645.9l8.28,7.28,7.97-7.28H0Z"/><path id="au" class="ca" d="m81.49,179.43h-16.24l8.28,7.28,7.97-7.28Z"/><path id="av" class="ca" d="m77.7,199.34h-8.66l4.42,3.89,4.25-3.89Z"/><path id="aw" class="ca" d="m77.7,235.23h-8.66l4.42,3.89,4.25-3.89Z"/><path id="ax" class="ca" d="m77.7,271.11h-8.66l4.42,3.89,4.25-3.89Z"/><path id="ay" class="ca" d="m81.49,215.32h-16.24l8.28,7.28,7.97-7.28Z"/><path id="az" class="ca" d="m81.49,251.21h-16.24l8.28,7.28,7.97-7.28Z"/><path id="ba" class="ca" d="m81.49,287.09h-16.24l8.28,7.28,7.97-7.28Z"/><path id="bb" class="ca" d="m81.49,448.52h-16.24l8.28,7.28,7.97-7.28Z"/><path id="bc" class="ca" d="m77.7,468.43h-8.66l4.42,3.89,4.25-3.89Z"/><path id="bd" class="ca" d="m77.7,504.32h-8.66l4.42,3.89,4.25-3.89Z"/><path id="be" class="ca" d="m77.7,540.21h-8.66l4.42,3.89,4.25-3.89Z"/><path id="bf" class="ca" d="m81.49,484.41h-16.24l8.28,7.28,7.97-7.28Z"/><path id="bg" class="ca" d="m81.49,520.3h-16.24l8.28,7.28,7.97-7.28Z"/><path id="bh" class="ca" d="m81.49,556.18h-16.24l8.28,7.28,7.97-7.28Z"/><path id="bi" class="ca" d="m81.49,717.62h-16.24l8.28,7.28,7.97-7.28Z"/><path id="bj" class="ca" d="m77.7,737.52h-8.66l4.42,3.89,4.25-3.89Z"/><path id="bk" class="ca" d="m77.7,773.41h-8.66l4.42,3.89,4.25-3.89Z"/><path id="bl" class="ca" d="m77.7,809.3h-8.66l4.42,3.89,4.25-3.89Z"/><path id="bm" class="ca" d="m81.49,753.5h-16.24l8.28,7.28,7.97-7.28Z"/><path id="bn" class="ca" d="m81.49,789.39h-16.24l8.28,7.28,7.97-7.28Z"/><path id="bo" class="ca" d="m81.49,825.27h-16.24l8.28,7.28,7.97-7.28Z"/><path id="bp" class="ca" d="m81.49,914.94h-16.24l8.28,7.28,7.97-7.28Z"/><path id="bq" class="ca" d="m77.7,934.84h-8.66l4.42,3.89,4.25-3.89Z"/><path id="br" class="ca" d="m77.7,970.73h-8.66l4.42,3.89,4.25-3.89Z"/><path id="bs" class="ca" d="m77.7,1006.62h-8.66l4.42,3.89,4.25-3.89Z"/><path id="bt" class="ca" d="m81.49,950.82h-16.24l8.28,7.28,7.97-7.28Z"/><path id="bu" class="ca" d="m81.49,986.71h-16.24l8.28,7.28,7.97-7.28Z"/><path id="bv" class="ca" d="m81.49,1022.59h-16.24l8.28,7.28,7.97-7.28Z"/><line id="bw" class="bz" x1="73.37" y1="191.86" x2="73.37" y2="1031.79"/><path id="bx" class="by" d="m8.12,12.15v641.04"/></g></svg>