<svg xmlns="http://www.w3.org/2000/svg" id="b" data-name="Layer 2" viewBox="0 0 1342.78 202.5">
  <defs>
    <style>
      .d{fill:none;stroke:#000;stroke-miterlimit:10;stroke-width:2px}
    </style>
  </defs>
  <g id="c" data-name="Layer 1">
    <path d="m317.25 59.28 3.97-3.4 3.31 4.07m-21.85-1.99 3.99-3.4 3.3 4.06m-21.85-1.99 4-3.4 3.28 4.07m-21.83-2.15 4.01-3.36 3.27 4.1m28.21 12.69 3.99-3.4 3.31 4.06m-21.9-1.99 4-3.4 3.3 4.07m-21.89-2.08 4.01-3.36 3.28 4.11m13.68 11.28 4-3.4 3.32 4.07m-21.96-2 4.02-3.4 3.3 4.07m-.94 9.95 4.02-3.4 3.32 4.07" class="d"/>
    <path d="m290.99 103.96 4.03-3.39 3.34 4.06-7.37-.67zm7.37.67-4.03 3.4-3.34-4.07 7.37.67zm-8.37 9.91 4.04-3.4 3.35 4.07-7.39-.67zm14.78-5.56-3.34-4.07 4.02-3.4-.68 7.47zm-20.17-9.36 3.32 4.06-4.04 3.4.72-7.46z"/>
    <path d="m291.64 97.12 4.03-3.4 3.32 4.07M171.86 43.65l4.09-3.27 3.16 4.17m-21.76-2.75 4.1-3.23 3.15 4.19m-1.27 9.92 4.11-3.27 3.16 4.16" class="d"/>
    <path d="m161.18 69.42 4.13-3.27 3.18 4.17-7.31-.9z"/>
    <path d="m168.49 70.32-4.13 3.27-3.18-4.17 7.31.9zm-8.66 9.63 4.14-3.26 3.19 4.17-7.33-.91zm14.89-5.09-3.19-4.17 4.12-3.27-.93 7.44zm-19.75-10.04 3.17 4.21-4.13 3.23.96-7.44z"/>
    <path d="m162.06 62.6 4.12-3.27 3.17 4.16m1008.97-20.75 3.14-4.19 4.11 3.24m-21.77 2.74 3.17-4.17 4.09 3.28m1.26 9.92 3.16-4.17 4.11 3.27" class="d"/>
    <path d="m1174.43 70.3 3.18-4.17 4.13 3.27-7.31.9z"/>
    <path d="m1181.74 69.4-3.18 4.17-4.13-3.27 7.31-.9zm-5.98 11.44 3.19-4.17 4.14 3.27-7.33.9zm13.15-8.6-4.13-3.23 3.16-4.21.97 7.44zm-21.64-4.84 4.12 3.28-3.19 4.17-.93-7.45z"/>
    <path d="m1173.57 63.48 3.17-4.17 4.12 3.27m-739.64 5.77-3.43-3.96-3.87 3.53m21.9 1.29-3.44-3.96-3.86 3.53m21.91 1.15-3.46-3.92-3.84 3.57m21.91 1.05-3.48-3.92-3.83 3.57m-29.76 8.49-3.45-3.96-3.87 3.53m21.96 1.23-3.47-3.92-3.86 3.55m21.97 1.07-3.48-3.92-3.84 3.57m-15.18 9.26-3.47-3.96-3.87 3.53m22.02 1.16-3.48-3.93-3.86 3.57m-.52 9.99-3.48-3.92-3.88 3.55" class="d"/>
    <path d="m460.69 116.39-3.5-3.92-3.89 3.55c2.46.15 4.93.25 7.39.37Z"/>
    <path d="m453.3 116.02 3.5 3.94 3.89-3.57c-2.46-.13-4.93-.22-7.39-.37Zm6.84 10.98-3.51-3.92-3.9 3.55c2.47.15 4.94.25 7.41.37Zm-13.82-7.64 3.9-3.52-3.48-3.96-.42 7.48zm21.33-6.39-3.88 3.57 3.51 3.92.37-7.49z"/>
    <path d="m461.05 109.53-3.49-3.93-3.89 3.55M667.8 74.99l3.66-3.73 3.66 3.73m-21.94-.08 3.67-3.73 3.64 3.77m-21.94-.12 3.68-3.73 3.63 3.77m-21.94-.16 3.7-3.69 3.61 3.77m-21.93-.32 3.71-3.69 3.6 3.81m43.85 10.36 3.67-3.73 3.66 3.77m-21.99-.12 3.68-3.73 3.65 3.77m-21.99-.12 3.7-3.73 3.63 3.77m-22-.24 3.72-3.69 3.61 3.81m29.29 10.2 3.68-3.73 3.67 3.77m-22.05-.12 3.7-3.73 3.65 3.77m-22.05-.16 3.71-3.7 3.64 3.78m14.63 10.08 3.71-3.73 3.66 3.77m-22.1-.12 3.71-3.73 3.65 3.77m-.08 10 3.72-3.73 3.67 3.77m-50.94-40.63 3.73-3.69 3.58 3.8m-.17 10 3.73-3.69 3.6 3.81m-.15 10 3.73-3.69 3.62 3.81m-.14 10 3.73-3.69 3.64 3.8m-.12 10 3.73-3.69 3.66 3.78" class="d"/>
    <path d="m667.7 191.86 3.76-3.73 3.76 3.73c-2.51.02-5.02.02-7.53 0Z"/>
    <path d="m675.22 191.86-3.76 3.77-3.76-3.77c2.51.02 5.02.02 7.53 0Zm-7.53 10.63 3.77-3.73 3.77 3.73c-2.52.02-5.03.02-7.55 0Zm14.44-6.91-3.77-3.73 3.75-3.77.02 7.5zm-21.32-7.5 3.75 3.77-3.77 3.73.02-7.5z"/>
    <path d="m667.71 184.99 3.75-3.73 3.76 3.73m-37.16-50.16 3.74-3.73 3.68 3.77m-14.74-10.08 3.73-3.73 3.67 3.77m44.29-49.88 3.64-3.77 3.67 3.73m-14.61 10.08 3.65-3.77 3.68 3.73m-14.68 10.04 3.68-3.73 3.67 3.73m-14.72 9.96 3.69-3.73 3.68 3.77m-14.79 9.92 3.71-3.73 3.68 3.77m-14.83 9.92 3.72-3.73 3.68 3.77m-7.53 19.96 3.74-3.73 3.7 3.77m.05-10 3.72-3.73 3.7 3.77m-7.52 19.96 3.75-3.73 3.71 3.77m36.79-80.08 3.63-3.77 3.68 3.73m-14.58 10.08 3.64-3.77 3.69 3.73m-14.64 10.08 3.67-3.77 3.68 3.73m-14.69 10.08 3.68-3.77 3.69 3.73m-14.74 10.04 3.69-3.73 3.69 3.73m-14.8 9.96 3.71-3.73 3.7 3.77m-7.46 19.96 3.73-3.73 3.71 3.77m-7.49 19.96 3.74-3.73 3.73 3.77m.03-30 3.71-3.73 3.71 3.73m36.51-60.2 3.62-3.78 3.7 3.69m-14.55 10.13 3.63-3.77 3.7 3.73m-14.6 10.08 3.65-3.77 3.7 3.73m-14.65 10.08 3.66-3.77 3.71 3.73m-14.71 10.08 3.68-3.77 3.71 3.73m-14.77 10.08 3.7-3.77 3.71 3.73m-14.84 30.04 3.73-3.73 3.73 3.73m-7.48 20 3.75-3.73 3.75 3.73m-.03-30 3.71-3.77 3.73 3.73m-.02-10 3.69-3.77 3.73 3.73m36.29-60.32 3.6-3.81 3.71 3.69m-14.5 10.23 3.61-3.8 3.72 3.69m-14.57 10.2 3.64-3.78 3.71 3.69m-14.61 10.13 3.65-3.77 3.71 3.73m-14.67 10.08 3.67-3.77 3.72 3.73m-14.73 10.08 3.68-3.77 3.73 3.73m-22.18 40.12 3.73-3.77 3.75 3.73m-.03-10 3.72-3.77 3.74 3.73m-.05-10 3.7-3.77 3.74 3.73m-.06-10 3.68-3.77 3.74 3.73m36.07-60.48 3.59-3.81 3.73 3.7m-14.47 10.23 3.6-3.81 3.73 3.69m-14.53 10.24 3.62-3.81 3.73 3.69m-14.58 10.23 3.64-3.81 3.73 3.69m-14.64 10.21 3.66-3.78 3.73 3.69m-14.69 10.13 3.67-3.77 3.73 3.73" class="d"/>
    <path d="m801.87 149.8 3.6-3.88 3.85 3.61-7.45.27z"/>
    <path d="m809.32 149.53-3.6 3.89-3.85-3.62 7.45-.27zm-7.11 10.89 3.61-3.88 3.86 3.61-7.47.27zm14.07-7.4-3.86-3.6 3.6-3.89.26 7.49zm-21.35-6.78 3.84 3.65-3.61 3.84-.23-7.49z"/>
    <path d="m828.66 71.88 3.5-3.88 3.8 3.61m-21.92.82 3.52-3.89 3.79 3.61m-21.93.82 3.54-3.88 3.77 3.61m-21.93.66 3.55-3.85 3.76 3.65m-21.93.59 3.56-3.85 3.75 3.65m44.23 8.6 3.52-3.89 3.81 3.61m-21.98.83 3.53-3.89 3.8 3.61m-21.99.74 3.55-3.85 3.78 3.65m-21.98.59 3.56-3.85 3.76 3.65m29.67 9.06 3.54-3.88 3.8 3.61m-22.03.82 3.55-3.88 3.8 3.61m-22.04.66 3.56-3.85 3.78 3.65m15.03 9.53 3.55-3.88 3.82 3.61m-22.1.74 3.57-3.85 3.8 3.65m.32 10 3.57-3.88 3.81 3.61m-52.52-38.56 3.57-3.83 3.74 3.65m.23 10 3.57-3.85 3.76 3.65m.24 10 3.58-3.85 3.77 3.65m.26 10 3.58-3.85 3.79 3.65m.28 10 3.58-3.85 3.8 3.65m8.34 29.79 3.6-3.88 3.84 3.61m-7.75-9.72 3.58-3.88 3.83 3.61m-15.14-9.53 3.59-3.85 3.82 3.65m42.25-51.61 3.49-3.92 3.82 3.57M836.37 81.6l3.51-3.88 3.82 3.6m-14.26 10.55 3.52-3.89 3.82 3.61m-14.31 10.54 3.54-3.88 3.82 3.61m-14.37 10.54 3.55-3.88 3.83 3.61m-14.42 10.54 3.57-3.88 3.83 3.61m246.25-66.52 3.27-4.1 4.01 3.36m-21.83 2.15 3.28-4.07 4 3.4m-21.85 1.99 3.3-4.07 3.98 3.41m-21.84 1.98 3.31-4.06 3.97 3.4m30.09 7.3 3.28-4.1 4.01 3.36m-21.89 2.08 3.3-4.07 4 3.4m-21.9 1.99 3.31-4.06 3.99 3.4m15.54 8.63 3.3-4.07 4.02 3.4m-21.96 2 3.32-4.07 4 3.4m.92 9.96 3.32-4.07 4.02 3.4" class="d"/>
    <path d="m1044.56 104.62 3.34-4.07 4.03 3.4-7.37.67zm7.37-.67-3.34 4.07-4.03-3.4 7.37-.67zm-6.39 11.25 3.35-4.07 4.04 3.4-7.39.67zm13.5-8.13-4.04-3.4 3.32-4.06.72 7.46zm-21.57-5.57 4.02 3.4-3.34 4.07-.68-7.47z"/>
    <path d="m1043.93 97.78 3.32-4.07 4.03 3.4m-186.1-26.83-3.83-3.57-3.47 3.92m21.91-1.06L875.95 66l-3.46 3.92m21.91-1.15-3.86-3.52-3.44 3.95m21.9-1.28-3.87-3.53-3.43 3.96m-28.71 11.56-3.85-3.57-3.47 3.92m21.96-1.07-3.85-3.55-3.47 3.92m21.96-1.23-3.87-3.53-3.45 3.96m-14.12 10.79-3.86-3.57-3.48 3.92m22.02-1.16-3.87-3.52-3.47 3.96m.54 9.98-3.88-3.55-3.48 3.92" class="d"/>
    <path d="m889.62 116.01-3.89-3.55-3.5 3.92c2.46-.13 4.93-.22 7.39-.37Z"/>
    <path d="m882.23 116.39 3.89 3.57 3.5-3.94c-2.46.16-4.93.25-7.39.37Zm7.96 10.23-3.9-3.55-3.51 3.92c2.47-.13 4.94-.22 7.41-.37Zm-14.55-6.16 3.51-3.93-3.88-3.56.37 7.49zm20.54-8.59-3.48 3.96 3.9 3.53-.42-7.49z"/>
    <path d="m889.25 109.15-3.89-3.55-3.49 3.92" class="d"/>
    <path d="m965.62 141.24 3.44-3.99 3.99 3.48-7.43.51z"/>
    <path d="m973.05 140.73-3.44 4-3.99-3.49 7.43-.51zm-6.67 11.11 3.46-4 4 3.48-7.46.52zm13.77-7.89-4-3.44 3.43-4.04.57 7.48zm-21.61-5.97 3.98 3.48-3.45 4-.53-7.48z"/>
    <path d="m989.24 62.34 3.34-4.03 3.95 3.44m-21.87 1.76 3.36-4.03 3.93 3.44m-21.88 1.65 3.38-3.99 3.92 3.48m-21.89 1.52 3.39-3.99 3.91 3.49m-21.89 1.52 3.41-4 3.89 3.49m44.54 6.8 3.35-4.03 3.95 3.45m-21.92 1.72 3.37-4 3.94 3.45m-21.94 1.57 3.39-3.99 3.93 3.48m-21.94 1.53 3.4-4 3.91 3.49m30.01 7.89 3.37-4.03 3.95 3.44m-21.98 1.66 3.39-4 3.94 3.49m-22 1.53 3.41-4 3.93 3.49m15.4 8.95 3.39-4 3.95 3.44M954.89 95l3.41-3.99 3.94 3.48m.72 9.97 3.41-3.99 3.96 3.48M916.3 67.49l3.41-3.96 3.89 3.53m.63 9.98 3.42-3.96 3.89 3.5m.65 9.97 3.42-3.99 3.91 3.49m.67 9.97 3.42-3.99 3.93 3.48m.68 9.98 3.43-4 3.94 3.49m9.53 29.41 3.44-4 3.99 3.48m-8.15-9.46 3.43-3.99 3.98 3.48m-15.52-8.95 3.43-4 3.96 3.49m40.14-53.27 3.33-4.03 3.95 3.44m-13.76 11.14 3.35-4.03 3.96 3.44m-13.82 11.14 3.36-4.03 3.96 3.45m-13.87 11.14 3.38-4.03 3.96 3.44m-13.93 11.15 3.4-4.03 3.96 3.44m-13.98 11.13 3.41-4.01 3.97 3.44" class="d"/>
    <path d="m533.6 149.54 3.85-3.61 3.6 3.88-7.45-.27zm7.45.27-3.85 3.61-3.6-3.88 7.45.27zm-7.81 10.35 3.86-3.61 3.61 3.88-7.47-.27zm14.53-6.42-3.62-3.85 3.84-3.65-.22 7.5zm-20.87-8.21 3.6 3.89-3.86 3.61.26-7.5z"/>
    <path d="m565.43 73.55 3.75-3.65 3.56 3.85m-21.93-.59 3.76-3.65 3.55 3.85m-21.93-.65 3.77-3.62 3.54 3.88m-21.93-.81 3.79-3.61 3.52 3.88m-21.92-.82 3.8-3.61 3.5 3.89m43.57 11.47 3.77-3.66 3.56 3.85m-21.98-.58 3.78-3.66 3.55 3.85m-21.99-.73 3.8-3.62 3.53 3.89m-21.98-.82 3.81-3.61 3.52 3.88m29.01 11.01 3.78-3.65 3.56 3.84m-22.04-.66 3.8-3.61 3.55 3.88m-22.03-.82 3.8-3.61 3.54 3.89m14.37 10.53 3.8-3.65 3.57 3.85m-22.1-.74 3.82-3.61 3.55 3.89m-.34 9.99 3.81-3.61 3.57 3.88m-49.88-41.97 3.82-3.57 3.49 3.93m-.43 9.99 3.82-3.61 3.51 3.88m-.41 10 3.82-3.61 3.52 3.88m-.39 9.99 3.82-3.61 3.54 3.89m-.37 9.99 3.83-3.61 3.55 3.89m6.37 30.26 3.84-3.61 3.6 3.88m-7.1-10.27 3.83-3.61 3.59 3.88m-14.48-10.54 3.82-3.61 3.57 3.89m45.55-48.73 3.74-3.66 3.57 3.83m-14.87 9.63 3.76-3.65 3.57 3.84m-14.92 9.61 3.77-3.65 3.58 3.84m-14.98 9.61 3.79-3.65 3.58 3.84m-15.03 9.61 3.8-3.65 3.58 3.84m-15.09 9.6 3.82-3.64 3.59 3.84" class="d"/>
    <path d="m369.87 140.74 3.99-3.49 3.44 4-7.43-.51z"/>
    <path d="m377.3 141.25-3.99 3.48-3.44-3.99 7.43.51zm-8.22 10.08 4-3.48 3.46 4-7.46-.52zm14.78-5.86-3.46-4 3.98-3.48-.52 7.48zm-20.52-8.99 3.43 4.04-4 3.44.57-7.48z"/>
    <path d="m404.73 66.1 3.89-3.49 3.4 4m-21.88-1.53 3.91-3.48 3.38 3.99m-21.88-1.52 3.92-3.49 3.37 4m-21.87-1.65 3.93-3.44 3.36 4.03m-21.87-1.76 3.95-3.44 3.34 4.03m43.07 13.22 3.91-3.49 3.4 4m-21.94-1.53 3.93-3.49 3.39 4m-21.94-1.57 3.94-3.45 3.37 4m-21.92-1.72 3.94-3.45 3.36 4.03m28.54 12.13 3.93-3.48 3.41 3.99m-22-1.52 3.94-3.49 3.39 4m-21.98-1.66 3.95-3.44 3.37 4.03m13.94 11.04 3.94-3.49 3.41 4m-22.04-1.58 3.95-3.44 3.39 4m-.74 9.97 3.96-3.48 3.41 3.99m-48.15-43.88 3.96-3.44 3.33 4.03m-.83 9.96 3.96-3.44 3.35 4.03m-.81 9.97 3.96-3.45 3.36 4.03m-.79 9.97 3.96-3.44 3.38 4.03m-.77 9.97 3.96-3.44 3.4 4.03m5.15 30.48 3.98-3.48 3.44 4m-6.68-10.49 3.97-3.48 3.43 3.99m-14.05-11.05 3.97-3.44 3.41 4m47.47-46.86 3.88-3.53 3.42 3.95m-15.24 9.09 3.89-3.49 3.42 3.96m-15.29 9 3.91-3.48 3.42 3.99m-15.35 8.96 3.93-3.49 3.42 4m-15.4 8.96 3.94-3.49 3.43 4m-15.46 8.95 3.96-3.49 3.43 4" class="d"/>
    <path d="m215.16 116.17 4.11-3.31 3.27 4.14-7.38-.83zm7.38.83-4.11 3.31-3.27-4.14 7.38.83zm-8.58 9.73 4.12-3.31 3.29 4.14-7.41-.83zm14.95-5.24-3.29-4.14 4.11-3.31-.82 7.45zm-20.1-9.81 3.27 4.14-4.13 3.32.86-7.46z"/>
    <path d="m259.02 53.67 4.02-3.36 3.26 4.1m-21.82-2.24 4.03-3.34 3.24 4.1m-21.81-2.39 4.05-3.32 3.22 4.14m-21.8-2.46 4.06-3.31 3.21 4.13m-21.8-2.49 4.07-3.28 3.2 4.14m42.55 14.79 4.03-3.36 3.26 4.1m-21.87-2.32 4.05-3.32 3.24 4.14m-21.86-2.46 4.06-3.32 3.23 4.14m-21.86-2.46 4.08-3.32 3.21 4.14m28.07 13.22 4.05-3.34 3.26 4.1m-21.92-2.4 4.06-3.32 3.24 4.14m-21.9-2.47 4.07-3.31 3.23 4.13m13.52 11.59 4.06-3.32 3.26 4.14m-21.97-2.47 4.08-3.31 3.24 4.13m-1.1 9.94 4.08-3.31 3.26 4.14m-46.49-45.68 4.08-3.27 3.18 4.17m-1.2 9.92 4.08-3.27 3.19 4.17m-1.18 9.93 4.09-3.27 3.21 4.13m-1.16 9.93 4.09-3.31 3.23 4.14m-1.14 9.93 4.09-3.31 3.25 4.14m-2.25 19.87 4.11-3.31 3.27 4.14m-6.26-10.77 4.1-3.31 3.26 4.14" class="d"/>
    <path d="m1120.38 116.99 3.27-4.14 4.11 3.31-7.38.83zm7.38-.83-3.27 4.14-4.11-3.31 7.38-.83zm-6.21 11.39 3.29-4.14 4.12 3.31-7.41.83zm13.42-8.43-4.13-3.31 3.27-4.14.86 7.45zm-21.78-5.1 4.11 3.31-3.29 4.15-.82-7.46z"/>
    <path d="m1149.29 46.32 3.18-4.17 4.08 3.28m-21.78 2.64 3.2-4.13 4.06 3.28m-21.79 2.49 3.21-4.14 4.06 3.32m-21.8 2.45 3.22-4.13 4.04 3.31m-21.8 2.4 3.24-4.1 4.03 3.34m44.77 4.99 3.2-4.18 4.08 3.28m-21.84 2.57 3.21-4.13 4.07 3.32m-21.85 2.45 3.23-4.13 4.06 3.31m-21.86 2.46 3.24-4.14 4.05 3.32m30.3 6.66 3.21-4.14 4.08 3.28m-21.9 2.5 3.23-4.14 4.07 3.32m-21.9 2.46 3.24-4.14 4.06 3.32m15.75 8.29 3.23-4.13 4.09 3.31m-21.97 2.47 3.25-4.14 4.08 3.32m1.12 9.93 3.25-4.14 4.09 3.32m-55.46-34.23 3.25-4.1 4.03 3.36m1.03 9.95 3.25-4.1 4.04 3.36m1.05 9.94 3.26-4.1 4.05 3.33m1.07 9.95 3.26-4.14 4.06 3.31m1.09 9.94 3.26-4.14 4.08 3.32m2.22 19.88 3.27-4.14 4.1 3.31m-8.48-9.11 3.26-4.14 4.1 3.31M.59 4.53l4.23-3.1 5.93 8.6 8.43-6.2 5.96 8.59 8.4-6.2 5.98 8.6 8.39-6.28 6.03 8.53 8.36-6.29 6.05 8.54 8.33-6.3 6.08 8.53 8.32-6.38 6.12 8.47 8.29-6.38 6.15 8.47 8.26-6.38 6.18 8.44 8.24-6.47 6.21 8.4 4.12-3.23 4.1-3.23 6.24 8.4 8.19-6.47 6.28 8.35 8.17-6.55 6.31 8.34 8.14-6.55 6.33 8.33 8.12-6.55 6.37 8.26 8.1-6.64 6.4 8.27 8.07-6.64 6.42 8.27 8.05-6.66 6.46 8.2 8.02-6.73 6.49 8.2 8-6.72 6.52 8.2 7.97-6.77 6.55 8.13 7.95-6.81 6.58 8.13 7.92-6.81 6.61 8.13 7.9-6.86 6.64 8.05 7.87-6.89 6.67 8.06 7.85-6.89 6.69 8.06 7.83-6.97 6.72 7.99 7.8-6.98 6.76 7.99 7.77-6.98 6.78 7.98 7.75-7.06 6.82 7.92 7.72-7.06 6.84 7.91 7.69-7.06 6.88 7.9 7.67-7.14 6.9 7.84 7.64-7.14 6.93 7.84 7.62-7.14 6.96 7.81 7.59-7.23 6.99 7.77 7.56-7.22 7.02 7.77 7.54-7.23 7.04 7.72 7.51-7.3 7.08 7.69 7.48-7.3 7.1 7.69 7.46-7.3 7.13 7.63 7.43-7.38 7.16 7.62 7.4-7.39 7.19 7.62 7.38-7.38 7.21 7.54 7.35-7.46 7.24 7.54 7.32-7.46 7.27 7.54 7.3-7.46 7.3 7.46 7.26-7.54 7.33 7.46 7.24-7.54 7.35 7.46 7.21-7.54 7.38 7.38 7.19-7.62 7.4 7.38 7.16-7.61 7.43 7.38 7.13-7.64 7.46 7.31 7.1-7.69 7.48 7.3 7.08-7.69 7.51 7.3 7.04-7.72 7.54 7.22 7.02-7.77 7.56 7.22 6.99-7.76 7.59 7.22 6.96-7.81 7.61 7.14 6.94-7.84 7.64 7.14 6.9-7.84 7.67 7.14 6.87-7.89 7.7 7.06 6.84-7.92 7.72 7.06 6.82-7.91 7.75 7.05 6.78-7.98 7.77 6.98 6.76-7.99 7.79 6.98 6.73-7.99 7.83 6.97 6.69-8.06 7.85 6.89 6.67-8.06 7.87 6.89 6.64-8.05 7.9 6.86 6.61-8.13 7.92 6.81 6.58-8.13 7.95 6.81 6.55-8.13 7.97 6.77 6.52-8.21 8 6.73 6.48-8.2 8.03 6.72 6.46-8.19 8.04 6.66 6.43-8.27 8.07 6.64 6.4-8.27 8.1 6.64 6.37-8.27 8.11 6.56 6.34-8.34 8.14 6.55 6.31-8.33 8.17 6.55 6.28-8.35 8.19 6.47 6.24-8.41 3.96 3.13 4.25 3.34 6.22-8.4 8.24 6.46 6.18-8.44 8.26 6.38 6.15-8.47 8.29 6.38 6.12-8.46 8.31 6.37 6.09-8.52 8.33 6.29 6.05-8.54 8.36 6.29 6.03-8.52 8.38 6.27 5.99-8.6 8.4 6.2 5.96-8.59 8.43 6.2 5.93-8.6 4.08 3" class="d"/>
  </g>
</svg>
